# xmcd CD database file
#
# Track frame offsets:
#	150
#	13491
#	23420
#	37365
#	49906
#	62023
#	75503
#	87293
#	97728
#	111200
#	123578
#	131434
#	146873
#	159969
#	174747
#
# Disc length: 2518 seconds
#
# Revision: 0
# Processed by: cddbd v1.5.2PL0 Copyright (c) Steve Scherf et al.
# Submitted via: cdripper 1,0,39,0213
#
DISCID=c709d40f
DTITLE=Various Artist - Country Legends - Wasted Days And Wasted Nights
DYEAR=1900
DGENRE=Country
TTITLE0=01 Freddy Fender - Wasted Days and Wasted Nights
TTITLE1=02 Don Williams and Poco Seco Singers - Take My Hand For A While
TTITLE2=03 Patsy Cline - A Church A Courtoom and Then Goodbye
TTITLE3=04 Leroy Van Dyke - The Auctioneer
TTITLE4=05 Jimmie C. Newman - Teardrops In My Heart
TTITLE5=06 Kitty Wells - I Don't Claim To Be An Angel
TTITLE6=07 Hank Williams - A Mansion On The Hill
TTITLE7=08 Hank Locklin - Let Me Be The One
TTITLE8=10 Kenny Rogers and The First Edition - Shine On Ruby Mountain
TTITLE9=09 Red Foley - Tennessee Border
TTITLE10=11 Jim Reeves - Oklahoma Hills
TTITLE11=12 Tina Turner - If This Is Our Last Time
TTITLE12=13 Freddy Fender - Only One
TTITLE13=14 Lynn Anderson - Gone At Last
TTITLE14=15 Razzy Bailey - She's Anybody's Darling
EXTD=
EXTT0=
EXTT1=
EXTT2=
EXTT3=
EXTT4=
EXTT5=
EXTT6=
EXTT7=
EXTT8=
EXTT9=
EXTT10=
EXTT11=
EXTT12=
EXTT13=
EXTT14=
PLAYORDER=
